HIERARCHY
ROOT Torso
{
	OFFSET 0.000000 0.000000 0.000000
	CHANNELS 6 Xposition Yposition Zposition Zrotation Yrotation Xrotation 
	JOINT LHip
	{
		OFFSET 0.000000 0.000000 0.000000
		CHANNELS 3 Zrotation Yrotation Xrotation
		JOINT LThigh
		{
			OFFSET 0.055000 -0.055000 -0.010000
			CHANNELS 3 Zrotation Yrotation Xrotation
			JOINT LLeg
			{
				OFFSET 0.000000 -0.120000 0.015000
				CHANNELS 3 Zrotation Yrotation Xrotation
				JOINT LFoot
				{
					OFFSET 0.000000 -0.100000 -0.010000
					CHANNELS 3 Zrotation Yrotation Xrotation
					JOINT LToes
					{
						OFFSET 0.000000 0.000000 0.090000
						CHANNELS 3 Zrotation Yrotation Xrotation
						End Site
						{
							OFFSET 0.000000 0.000000 0.000000
						}
					}
				}
			}
		}
	}
	JOINT RHip
	{
		OFFSET 0.000000 0.000000 0.000000
		CHANNELS 3 Zrotation Yrotation Xrotation
		JOINT RThigh
		{
			OFFSET -0.055000 -0.055000 -0.010000
			CHANNELS 3 Zrotation Yrotation Xrotation
			JOINT RLeg
			{
				OFFSET 0.000000 -0.120000 0.015000
				CHANNELS 3 Zrotation Yrotation Xrotation
				JOINT RFoot
				{
					OFFSET 0.000000 -0.100000 -0.010000
					CHANNELS 3 Zrotation Yrotation Xrotation
					JOINT RToes
					{
						OFFSET 0.000000 0.000000 0.090000
						CHANNELS 3 Zrotation Yrotation Xrotation
						End Site
						{
							OFFSET 0.000000 0.000000 0.000000
						}
					}
				}
			}
		}
	}
	JOINT Neck
	{
		OFFSET 0.000000 0.135000 0.000000
		CHANNELS 3 Zrotation Yrotation Xrotation
		JOINT Head
		{
			OFFSET 0.000000 0.075000 0.000000
			CHANNELS 3 Zrotation Yrotation Xrotation
			End Site
			{
				OFFSET 0.000000 0.000000 0.000000
			}
		}
	}
	JOINT LUpperarm
	{
		OFFSET 0.098000 0.150000 0.000000
		CHANNELS 3 Zrotation Yrotation Xrotation
		JOINT LLowerarm
		{
			OFFSET 0.000000 0.009000 0.090000
			CHANNELS 3 Zrotation Yrotation Xrotation
			JOINT LHand
			{
				OFFSET 0.000000 0.000000 0.105000
				CHANNELS 3 Zrotation Yrotation Xrotation
				End Site
				{
					OFFSET 0.000000 0.000000 0.000000
				}
			}
		}
	}
	JOINT RUpperarm
	{
		OFFSET -0.098000 0.150000 0.000000
		CHANNELS 3 Zrotation Yrotation Xrotation
		JOINT RLowerarm
		{
			OFFSET 0.000000 0.009000 0.090000
			CHANNELS 3 Zrotation Yrotation Xrotation
			JOINT RHand
			{
				OFFSET 0.000000 0.000000 0.105000
				CHANNELS 3 Zrotation Yrotation Xrotation
				End Site
				{
					OFFSET 0.000000 0.000000 0.000000
				}
			}
		}
	}
}
MOTION
Frames: 15
Frame Time: 0.040000
0.381065 0.353995 -0.017112 -175.005679 -86.334451 163.444161 -15.185240 -1.135916 3.308331 12.214669 -1.236628 9.588678 8.920751 -1.293801 8.092931 0.000000 0.000000 0.000000 0.000000 0.000000 0.000000 16.455843 1.417881 3.179785 -10.304446 1.033413 9.248366 -3.851784 0.699771 7.819635 0.000000 0.000000 0.000000 0.000000 0.000000 0.000000 2.570615 -0.820762 28.151321 0.000000 0.000000 0.000000 -12.238523 43.729744 12.673561 -7.589237 -28.309988 -29.422817 0.000000 0.000000 0.000000 -130.044812 -72.407600 -128.618138 6.351977 17.232830 2.947499 0.000000 0.000000 0.000000 
0.381141 0.353988 -0.017154 -175.024571 -86.025274 163.603038 -15.092346 -1.129879 3.236618 12.204541 -1.182367 9.542215 8.806764 -1.268454 8.060335 0.000000 0.000000 0.000000 0.000000 0.000000 0.000000 16.532912 1.558661 3.030926 -10.311795 1.040185 9.216866 -3.917553 0.715310 7.927293 0.000000 0.000000 0.000000 0.000000 0.000000 0.000000 2.789796 -0.839477 27.597177 0.000000 0.000000 0.000000 -11.359797 42.885889 12.048315 -7.506605 -24.968228 -29.033667 0.000000 0.000000 0.000000 -130.092775 -72.666457 -128.632829 6.387753 17.249938 3.091428 0.000000 0.000000 0.000000 
0.381207 0.353988 -0.017204 -175.037824 -85.832460 163.716931 -15.021613 -1.123115 3.181380 12.200884 -1.141141 9.505509 8.716597 -1.248743 8.029780 0.000000 0.000000 0.000000 0.000000 0.000000 0.000000 16.594977 1.663621 2.923333 -10.319181 1.046457 9.196921 -3.966269 0.727100 8.011589 0.000000 0.000000 0.000000 0.000000 0.000000 0.000000 2.861056 -0.837110 27.188650 0.000000 0.000000 0.000000 -10.706242 42.234020 11.624958 -7.393953 -22.630206 -28.448106 0.000000 0.000000 0.000000 -130.120993 -72.856513 -128.642538 6.404588 17.232999 3.188994 0.000000 0.000000 0.000000 
0.381271 0.353999 -0.017259 -175.018125 -85.763300 163.759466 -14.973224 -1.120524 3.138151 12.204258 -1.113792 9.477342 8.653222 -1.235581 8.008077 0.000000 0.000000 0.000000 0.000000 0.000000 0.000000 16.645012 1.727284 2.858729 -10.329372 1.051930 9.187621 -3.998914 0.734760 8.063857 0.000000 0.000000 0.000000 0.000000 0.000000 0.000000 2.796057 -0.818158 26.936191 0.000000 0.000000 0.000000 -10.408590 41.830434 11.479426 -7.303953 -21.538713 -27.895453 0.000000 0.000000 0.000000 -130.130410 -72.976375 -128.647607 6.405924 17.189086 3.246623 0.000000 0.000000 0.000000 
0.381335 0.354018 -0.017323 -174.950269 -85.819122 163.718056 -14.952205 -1.124551 3.102448 12.220630 -1.100469 9.457356 8.618706 -1.229276 7.996236 0.000000 0.000000 0.000000 0.000000 0.000000 0.000000 16.679352 1.749283 2.836932 -10.335500 1.056609 9.186230 -4.016740 0.738363 8.082305 0.000000 0.000000 0.000000 0.000000 0.000000 0.000000 2.611397 -0.786112 26.844450 0.000000 0.000000 0.000000 -10.523960 41.693550 11.636558 -7.274049 -21.777042 -27.520197 0.000000 0.000000 0.000000 -130.123408 -73.019233 -128.649445 6.395181 17.126748 3.273868 0.000000 0.000000 0.000000 
0.381406 0.354038 -0.017394 -174.835497 -85.991749 163.594789 -14.961149 -1.135015 3.073407 12.253550 -1.100490 9.446792 8.613721 -1.229734 7.995317 0.000000 0.000000 0.000000 0.000000 0.000000 0.000000 16.693498 1.731724 2.857984 -10.329830 1.061118 9.191127 -4.021966 0.738441 8.068796 0.000000 0.000000 0.000000 0.000000 0.000000 0.000000 2.318531 -0.742139 26.913422 0.000000 0.000000 0.000000 -10.998962 41.802197 12.053275 -7.301725 -23.255274 -27.307424 0.000000 0.000000 0.000000 -130.103070 -72.974492 -128.650203 6.373442 17.050542 3.278938 0.000000 0.000000 0.000000 
0.381470 0.354054 -0.017476 -174.693603 -86.272756 163.404172 -14.998471 -1.150440 3.055483 12.297253 -1.113510 9.447856 8.637935 -1.236881 8.008622 0.000000 0.000000 0.000000 0.000000 0.000000 0.000000 16.684228 1.675410 2.924006 -10.310908 1.065727 9.203825 -4.014063 0.735141 8.026060 0.000000 0.000000 0.000000 0.000000 0.000000 0.000000 1.915090 -0.684216 27.149549 0.000000 0.000000 0.000000 -11.707556 42.110807 12.647478 -7.348495 -25.775779 -27.107378 0.000000 0.000000 0.000000 -130.072578 -72.836367 -128.651782 6.341039 16.963030 3.266628 0.000000 0.000000 0.000000 
0.381516 0.354063 -0.017570 -174.557231 -86.643727 163.181861 -15.059231 -1.168404 3.051660 12.345090 -1.137944 9.460747 8.688012 -1.249928 8.036080 0.000000 0.000000 0.000000 0.000000 0.000000 0.000000 16.652625 1.585615 3.031724 -10.280428 1.070998 9.225133 -3.994447 0.729108 7.960095 0.000000 0.000000 0.000000 0.000000 0.000000 0.000000 1.408955 -0.610270 27.533127 0.000000 0.000000 0.000000 -12.506216 42.571395 13.331340 -7.361297 -29.079006 -26.714259 0.000000 0.000000 0.000000 -130.034213 -72.621377 -128.653827 6.299079 16.865964 3.237244 0.000000 0.000000 0.000000 
0.381550 0.354066 -0.017680 -174.469492 -87.078924 162.978333 -15.136748 -1.185899 3.060125 12.393045 -1.170040 9.482232 8.754457 -1.266656 8.070716 0.000000 0.000000 0.000000 0.000000 0.000000 0.000000 16.603517 1.474088 3.169740 -10.242219 1.077482 9.254108 -3.966925 0.721573 7.882730 0.000000 0.000000 0.000000 0.000000 0.000000 0.000000 0.803894 -0.517047 28.039562 0.000000 0.000000 0.000000 -13.268938 43.146752 14.023419 -7.295695 -32.870323 -25.969325 0.000000 0.000000 0.000000 -129.991263 -72.353947 -128.656427 6.249170 16.761870 3.190643 0.000000 0.000000 0.000000 
0.381573 0.354066 -0.017794 -174.463999 -87.556975 162.842476 -15.222003 -1.200662 3.077779 12.436355 -1.206101 9.507207 8.826134 -1.284582 8.102992 0.000000 0.000000 0.000000 0.000000 0.000000 0.000000 16.543685 1.353926 3.322406 -10.203430 1.084483 9.289005 -3.932420 0.713191 7.807448 0.000000 0.000000 0.000000 0.000000 0.000000 0.000000 0.103678 -0.401336 28.654751 0.000000 0.000000 0.000000 -13.914081 43.803175 14.666255 -7.126543 -36.895499 -24.794024 0.000000 0.000000 0.000000 -129.946777 -72.050061 -128.660366 6.193893 16.657316 3.128560 0.000000 0.000000 0.000000 
0.381589 0.354063 -0.017904 -174.566635 -88.053787 162.809626 -15.304839 -1.211737 3.103599 12.467911 -1.244156 9.531335 8.895531 -1.302135 8.127510 0.000000 0.000000 0.000000 0.000000 0.000000 0.000000 16.483170 1.233978 3.475630 -10.175239 1.091222 9.327985 -3.892006 0.704306 7.741047 0.000000 0.000000 0.000000 0.000000 0.000000 0.000000 -0.646745 -0.267889 29.314967 0.000000 0.000000 0.000000 -14.398788 44.512734 15.221420 -6.846495 -40.936454 -23.189371 0.000000 0.000000 0.000000 -129.902516 -71.729428 -128.664984 6.136579 16.559729 3.052548 0.000000 0.000000 0.000000 
0.381599 0.354066 -0.017998 -174.783065 -88.554064 162.895846 -15.379263 -1.220471 3.134714 12.484765 -1.283281 9.551417 8.961970 -1.318965 8.142172 0.000000 0.000000 0.000000 0.000000 0.000000 0.000000 16.429990 1.118871 3.618885 -10.165644 1.096369 9.368520 -3.845154 0.694693 7.683544 0.000000 0.000000 0.000000 0.000000 0.000000 0.000000 -1.414086 -0.121881 29.980176 0.000000 0.000000 0.000000 -14.707000 45.246124 15.659700 -6.464350 -44.817017 -21.234303 0.000000 0.000000 0.000000 -129.859234 -71.411900 -128.668612 6.081355 16.477282 2.964512 0.000000 0.000000 0.000000 
0.381610 0.354073 -0.018071 -175.104426 -89.053553 163.100152 -15.453558 -1.229089 3.165647 12.497332 -1.324114 9.567202 9.032586 -1.335896 8.144202 0.000000 0.000000 0.000000 0.000000 0.000000 0.000000 16.376920 1.010992 3.746866 -10.165716 1.097826 9.404961 -3.787611 0.683479 7.632725 0.000000 0.000000 0.000000 0.000000 0.000000 0.000000 -2.152440 0.027210 30.617594 0.000000 0.000000 0.000000 -14.847385 45.961947 15.966318 -6.003274 -48.417454 -19.060108 0.000000 0.000000 0.000000 -129.814878 -71.110578 -128.667717 6.032594 16.418723 2.866739 0.000000 0.000000 0.000000 
0.381617 0.354079 -0.018119 -175.508176 -89.543905 163.404447 -15.533174 -1.240824 3.191531 12.512809 -1.366845 9.579515 9.114107 -1.354005 8.138161 0.000000 0.000000 0.000000 0.000000 0.000000 0.000000 16.316704 0.910844 3.858288 -10.163673 1.094322 9.432625 -3.717320 0.670132 7.583839 0.000000 0.000000 0.000000 0.000000 0.000000 0.000000 -2.813799 0.167600 31.200154 0.000000 0.000000 0.000000 -14.845082 46.622731 16.139650 -5.494603 -51.657376 -16.810016 0.000000 0.000000 0.000000 -129.765726 -70.833112 -128.658350 5.992488 16.387336 2.760866 0.000000 0.000000 0.000000 
0.381621 0.354082 -0.018140 4.032814 -89.986836 -16.218957 -15.612310 -1.258838 3.211488 12.524806 -1.410779 9.588651 9.207821 -1.373966 8.134982 0.000000 0.000000 0.000000 0.000000 0.000000 0.000000 16.252741 0.814976 3.955913 -10.161572 1.086003 9.452271 -3.636751 0.654758 7.529300 0.000000 0.000000 0.000000 0.000000 0.000000 0.000000 -3.376093 0.292119 31.725486 0.000000 0.000000 0.000000 -14.741676 47.211823 16.192915 -4.976072 -54.489562 -14.628191 0.000000 0.000000 0.000000 -129.710993 -70.574903 -128.640767 5.960759 16.381068 2.652366 0.000000 0.000000 0.000000 
